<svg version="1.1" id="Layer_1" xmlns="http://www.w3.org/2000/svg" xmlns:xlink="http://www.w3.org/1999/xlink" x="0px" y="0px"
	 width="100%" viewBox="0 0 1024 1024" enable-background="new 0 0 1024 1024" xml:space="preserve">
<path fill="#000000" opacity="1.000000" stroke="none" 
	d="
M1025.000000,741.532410 
	C988.716248,716.344849 952.432434,690.689636 916.458740,665.253662 
	C914.675537,665.951416 914.969788,666.908020 915.228271,667.614685 
	C921.958862,686.012207 915.313538,701.896301 905.897095,717.234863 
	C903.373718,721.345154 900.497986,725.240784 898.013794,729.373108 
	C888.368774,745.417297 873.960327,750.282288 856.108521,747.816956 
	C832.419495,744.545471 810.447998,735.867004 788.584167,726.812683 
	C783.049133,724.520508 777.637451,721.928589 772.186523,719.436340 
	C769.148010,718.047058 767.006836,718.312439 764.404968,721.102356 
	C732.296997,755.530884 694.683228,782.420349 651.692383,801.531311 
	C623.160583,814.214722 593.389038,822.667297 562.427734,827.681519 
	C536.374634,831.900940 510.285492,832.304016 484.258881,830.872253 
	C450.073212,828.991638 416.915070,821.176270 384.790344,808.960632 
	C346.380371,794.355042 311.669586,773.666138 280.649872,746.840088 
	C241.764297,713.211670 211.740067,672.905945 190.589890,625.993225 
	C179.315323,600.985229 171.104813,575.013489 166.103012,548.084473 
	C160.460098,517.703918 158.153702,487.017487 161.023041,456.197906 
	C165.482864,408.294769 178.226425,362.723572 201.198456,320.239349 
	C223.090607,279.752167 251.716278,244.804977 287.296906,215.560852 
	C312.682587,194.696045 340.405518,177.634705 370.609680,164.747742 
	C394.372314,154.609131 418.948700,147.144272 444.435089,142.396271 
	C467.106079,138.172775 489.933746,135.770691 512.872131,136.182739 
	C547.559570,136.805878 581.689880,141.820908 614.862366,152.579819 
	C694.926697,178.547318 757.835571,226.914734 803.651978,297.372711 
	C824.138123,328.876923 838.622070,363.075317 847.703918,399.635193 
	C855.951782,432.837830 859.676331,466.486176 857.982605,500.560669 
	C856.644104,527.489380 852.503113,554.130676 844.697815,580.052124 
	C843.537659,583.904907 843.410278,586.648682 847.005554,589.516418 
	C857.785583,598.115112 868.242249,607.140747 877.894287,617.002502 
	C911.395325,651.231384 953.875244,673.487854 991.419861,702.321106 
	C1000.264587,709.113586 1009.578674,715.296875 1018.715210,721.705750 
	C1020.466187,722.933960 1022.065491,724.485107 1024.643555,724.961243 
	C1025.000000,730.354919 1025.000000,735.709900 1025.000000,741.532410 
M177.075745,478.505371 
	C176.433563,501.389496 178.058380,524.134155 182.598923,546.552368 
	C195.305099,609.286865 222.908142,664.645203 267.118561,711.048157 
	C325.902191,772.746948 397.776337,807.987183 483.071838,814.961121 
	C519.578003,817.945984 555.598083,815.007935 591.095093,805.963867 
	C645.853943,792.012207 693.567017,765.164978 735.032043,726.990967 
	C740.726074,721.748901 746.070740,716.127319 751.531555,710.726562 
	C749.400024,707.928284 746.986572,707.070557 744.801147,705.961487 
	C727.260071,697.059570 710.339600,687.067688 693.679626,676.645874 
	C655.046387,652.478638 618.341125,625.758911 586.090393,593.372070 
	C573.279175,580.506836 561.323486,566.843201 552.620361,550.696167 
	C543.975891,534.657837 540.750061,518.187500 549.086670,500.987122 
	C554.182800,490.472626 560.123779,480.458099 568.082153,471.792358 
	C570.684998,468.958221 573.687134,466.608734 577.083313,464.731781 
	C590.110291,457.532227 603.770813,459.153839 617.491272,461.773621 
	C621.865906,462.608917 626.191772,463.699219 631.649658,464.921326 
	C630.419312,463.475037 630.168640,463.025635 629.789734,462.757202 
	C612.936707,450.817902 596.072388,438.894501 579.209351,426.969330 
	C525.615967,389.069214 472.031952,351.155853 418.426117,313.273438 
	C379.513733,285.774658 340.551514,258.346375 301.681946,230.787247 
	C298.434204,228.484558 296.118927,228.362274 292.990936,231.065292 
	C282.508667,240.123413 272.647125,249.780731 263.385254,260.074860 
	C207.762024,321.897491 178.610504,394.218201 177.075745,478.505371 
M837.083984,441.243927 
	C835.445312,425.974976 832.333862,410.996338 828.132324,396.239716 
	C805.352905,316.235657 759.433289,252.811844 690.156067,206.990616 
	C624.251892,163.400406 551.434692,146.025940 472.769562,154.077515 
	C413.948578,160.098007 360.659821,180.800735 312.818573,215.533203 
	C308.436951,218.714218 308.422089,219.593079 312.837738,222.721375 
	C342.058289,243.422913 371.296082,264.100159 400.533691,284.777618 
	C449.898224,319.689178 499.250244,354.618530 548.639038,389.495758 
	C586.732788,416.396729 624.897339,443.197510 662.952209,470.153259 
	C665.949524,472.276367 667.615601,472.282867 669.725830,469.116943 
	C673.974304,462.742950 678.578918,456.606506 683.029663,450.367065 
	C694.155945,434.769287 705.260315,419.155792 716.428223,403.587891 
	C717.621826,401.923981 718.618469,399.327484 721.357056,400.257416 
	C724.731506,401.403259 728.301941,402.394012 730.972229,405.494232 
	C729.898499,407.174622 728.984680,408.748749 727.934692,410.226105 
	C712.593872,431.811920 697.237305,453.386566 681.878296,474.959442 
	C677.796570,480.692566 677.837952,480.613281 683.400452,484.521484 
	C694.216614,492.120789 706.522888,496.997253 717.905273,503.538910 
	C753.448242,523.965942 788.091125,545.817383 821.388611,569.765930 
	C823.214966,571.079468 824.870728,572.918091 828.160706,572.980164 
	C840.162659,530.010193 842.738464,486.369110 837.083984,441.243927 
M818.015869,723.283325 
	C825.079529,725.912292 832.548279,726.833923 839.916199,727.701904 
	C850.558167,728.955566 860.759583,726.984863 868.301941,718.643738 
	C875.355835,710.842834 880.734192,701.792969 885.132324,692.217346 
	C890.798889,679.880310 890.860107,667.451599 885.160889,655.151550 
	C879.135925,642.148438 869.991150,631.323486 860.208496,621.075989 
	C843.876160,603.967590 825.482849,589.181519 806.518250,575.164734 
	C784.871399,559.165466 762.566040,544.103271 739.350830,530.424316 
	C718.007568,517.848389 696.367615,505.854736 673.651062,495.893402 
	C670.495361,494.509583 668.130920,493.926422 665.622864,497.517395 
	C653.608704,514.718811 641.289917,531.707214 629.102966,548.788208 
	C624.564941,555.148560 624.672668,554.996643 617.518738,551.756775 
	C613.692871,550.024048 612.855896,548.546997 615.581726,544.807007 
	C627.649414,528.249390 639.448059,511.495361 651.298401,494.779999 
	C652.520630,493.055969 654.088379,491.454163 654.316833,489.266998 
	C653.706970,487.702118 652.351807,487.427795 651.109497,486.981049 
	C636.505127,481.728851 621.779846,477.239075 605.938354,478.133392 
	C599.559387,478.493500 593.589661,480.285797 588.780090,484.142426 
	C577.307068,493.342072 569.772827,505.570282 565.546875,519.465637 
	C561.139709,533.956787 566.414734,547.083862 574.113831,559.071350 
	C591.420471,586.017700 615.293762,606.768433 639.963623,626.523315 
	C660.344604,642.843750 682.146545,657.219360 704.423950,670.874695 
	C716.776184,678.446167 729.416443,685.513733 742.224854,692.201233 
	C755.901062,699.341919 770.053894,705.626343 784.250977,711.694214 
	C794.935974,716.260986 805.826233,720.463867 818.015869,723.283325 
z"/>
</svg>