<?xml version="1.0" encoding="UTF-8" standalone="no"?>
<!DOCTYPE svg PUBLIC "-//W3C//DTD SVG 1.1//EN" "http://www.w3.org/Graphics/SVG/1.1/DTD/svg11.dtd">
<svg width="100%" height="100%" viewBox="0 0 2048 2048" version="1.1" xmlns="http://www.w3.org/2000/svg" xmlns:xlink="http://www.w3.org/1999/xlink" xml:space="preserve" xmlns:serif="http://www.serif.com/" style="fill-rule:evenodd;clip-rule:evenodd;stroke-linecap:round;stroke-linejoin:round;stroke-miterlimit:1.5;">
    <rect id="Artboard1" x="0" y="0" width="2048" height="2048" style="fill:rgb(235,235,235);"/>
    <clipPath id="_clip1">
        <rect id="Artboard11" serif:id="Artboard1" x="0" y="0" width="2048" height="2048"/>
    </clipPath>
    <g clip-path="url(#_clip1)">
        <g transform="matrix(1.12287,0,0,1.17813,-45.5355,55.5812)">
            <ellipse cx="952.5" cy="822" rx="675.5" ry="640" style="fill:none;stroke:rgb(77,77,77);stroke-width:26.07px;"/>
        </g>
        <g transform="matrix(0.957581,0.657041,-0.367149,0.535089,526.599,191.921)">
            <rect x="795" y="576" width="1115" height="38" style="fill:rgb(236,20,20);"/>
        </g>
        <g transform="matrix(0.167911,-0.216683,0.512951,0.397493,888.149,1334.53)">
            <rect x="795" y="576" width="1115" height="38" style="fill:rgb(236,20,20);"/>
        </g>
        <g transform="matrix(-0.837993,-0.567335,0.608803,-0.899244,2222.53,3498.58)">
            <path d="M1957,1391C1957,1445.09 1909.88,1489 1851.84,1489L1526.16,1489C1468.12,1489 1421,1445.09 1421,1391C1421,1336.91 1468.12,1293 1526.16,1293L1851.84,1293C1909.88,1293 1957,1336.91 1957,1391Z" style="fill:rgb(236,20,20);fill-opacity:0;stroke:rgb(236,20,20);stroke-width:28.58px;"/>
        </g>
    </g>
</svg>
